<svg id="visual" viewBox="0 0 900 600" width="900" height="600" xmlns="http://www.w3.org/2000/svg" xmlns:xlink="http://www.w3.org/1999/xlink" version="1.1"><rect x="0" y="0" width="900" height="600" fill="#FFFFFF"></rect><defs><linearGradient id="grad1_0" x1="33.3%" y1="0%" x2="100%" y2="100%"><stop offset="20%" stop-color="#ffffff" stop-opacity="1"></stop><stop offset="80%" stop-color="#ffffff" stop-opacity="1"></stop></linearGradient></defs><defs><linearGradient id="grad2_0" x1="0%" y1="0%" x2="66.7%" y2="100%"><stop offset="20%" stop-color="#ffffff" stop-opacity="1"></stop><stop offset="80%" stop-color="#ffffff" stop-opacity="1"></stop></linearGradient></defs><g transform="translate(900, 0)"><path d="M0 324.5C-40.1 314.3 -80.1 304.1 -120.2 290.1C-160.2 276.1 -200.3 258.3 -229.5 229.5C-258.6 200.6 -277 160.6 -291 120.5C-305.1 80.5 -314.8 40.2 -324.5 0L0 0Z" fill="#cc8053"></path></g><g transform="translate(0, 600)"><path d="M0 -324.5C43.1 -314.3 86.2 -304 116.3 -280.9C146.4 -257.7 163.5 -221.5 195.9 -195.9C228.2 -170.2 275.8 -155.1 299.8 -124.2C323.8 -93.3 324.1 -46.6 324.5 0L0 0Z" fill="#cc8053"></path></g></svg>