<svg xmlns="http://www.w3.org/2000/svg" viewBox="0 0 3000 2200" width="3000" height="2200"><g transform="translate(568.0 392.0) rotate(0.0 981.0 788.0) scale(1.1971079044510204 1.1961776961435413)"><svg width="1638.95" height="1317.53" viewBox="0 0 1638.95 1317.53"><rect height="1121.247" rx="50.617" width="1638.945" x=".002"/><path d="M1638.95 922.309v148.32c0 27.95-22.67 50.62-50.62 50.62H50.62c-27.96 0-50.62-22.67-50.62-50.62v-148.32z" fill="#b4b3b3"/><path d="M71.848 53.686h1494.111v814.507H71.848z" fill="#fff"/><path d="M592.946 1107.1h464.728v190.62H592.946z" fill="#b4b3b3"/><rect fill="#b4b3b3" height="29.78" rx="14.89" width="600.762" x="524.929" y="1287.75"/><path d="M592.946 1120.749h464.729v1H592.946zm0 166.501h464.729v1H592.946z"/></svg></g><g transform="translate(156.0 1136.0) rotate(0.0 289.0 416.0) scale(0.7738622016513523 0.7744722046393864)"><svg width="746.903" height="1074.28" viewBox="0 0 746.903 1074.28"><path d="M398.305 537.597c0-85.057 297.769-164.495 297.769-452.338H54.512c0 287.843 297.769 366.729 297.769 452.338S54.512 702.092 54.512 989.935h641.562c0-287.843-297.769-365.902-297.769-452.338z" fill="#fff"/><path d="M94.694 253.652s52.485-86.324 121.275-86.324 146.495 59.958 210.168 59.958 122.284-56.307 183.683-56.307c43.603 0 68.852 28.349 68.852 28.349-25.935 83.921-97.707 161.963-153.242 206.935-37.914 30.702-79.053 58.391-110.569 94.533-26.412 30.288-36.867 80.37-36.867 129.635h-12.791c0-98.952-8.937-110.408-43.59-144.827-59.588-59.185-157.969-106.632-226.918-231.952zm270.508 376.779c0 167.96-310.69 155.428-310.69 356.277h641.562c0-148.812-318.081-162.618-318.081-356.277" fill="#ebebeb"/><path d="M696.074 991.435H54.512a1.5 1.5 0 0 1-1.5-1.5c0-82.8 24.111-155.458 73.713-222.127 42.326-56.892 96.315-99.661 139.697-134.027 47.131-37.336 84.358-66.827 84.358-96.184s-37.293-59.026-84.509-96.425c-43.362-34.348-97.329-77.095-139.619-133.941C77.1 240.623 53.012 168.015 53.012 85.26a1.5 1.5 0 0 1 1.5-1.5h641.562a1.5 1.5 0 0 1 1.5 1.5c0 82.844-24.135 155.553-73.785 222.283-42.362 56.937-96.375 99.728-139.775 134.112-47.047 37.273-84.208 66.714-84.208 95.943 0 29.873 37.491 59.561 84.957 97.147 43.308 34.294 97.205 76.974 139.386 133.684 49.408 66.426 73.426 138.882 73.426 221.507a1.5 1.5 0 0 1-1.5 1.5zm-640.059-3h638.557c-.654-184.251-122.58-280.791-211.671-351.339-48.102-38.09-86.095-68.175-86.095-99.499 0-30.679 37.663-60.518 85.345-98.294C571.558 368.47 693.916 271.537 694.572 86.76H56.015c.655 184.566 122.84 281.342 212.12 352.061 47.851 37.902 85.646 67.84 85.646 98.777s-37.729 60.696-85.495 98.536C178.942 706.91 56.672 803.764 56.015 988.436z"/><g fill="#0a4ed0"><path d="M44.252 986.709h658.4c24.423 0 44.252 19.829 44.252 44.252v43.319H0v-43.319c0-24.423 19.829-44.252 44.252-44.252zM0 0h746.903v43.319c0 24.423-19.829 44.252-44.252 44.252H44.252C19.829 87.571 0 67.742 0 43.319z"/></g></svg></g><g transform="translate(2864.0 1376.0) rotate(0.0 -206.0 296.0) scale(-1.2422435159109684 1.264762686082483)"><svg width="331.658" height="468.072" viewBox="0 0 331.658 468.072"><path d="m50.447 416.798 22.293 4.4-6.793 34.414-22.293-4.4zm111.843 38.457h-22.723v-35.077h22.723z" fill="#ffbd9c"/><path d="M79.445 462.517c0 1.667-.167 3.29-.48 4.863h-48.05a24.953 24.953 0 0 1-.48-4.863c0-13.529 10.97-24.505 24.505-24.505s24.505 10.975 24.505 24.505zm95.988.692c0 1.667-.167 3.29-.48 4.863h-48.05a24.953 24.953 0 0 1-.48-4.863c0-13.529 10.97-24.505 24.505-24.505s24.505 10.975 24.505 24.505z"/><path d="M327.781 86.886c-9.091 11.641-29.278 22.89-34.225 25.703a4.852 4.852 0 0 0-.222.132c-.055.029-.104.059-.153.089-.248.138-.435.249-.561.326l-.119.073a.433.433 0 0 1-.064.044c-52.281 30.875-101.868 41.015-147.412 30.142l-.486-.116c-22.997-5.568-45.204-16.597-66.015-32.773-19.929-15.494-39.11-36.142-57.007-61.398a.485.485 0 0 0-.06-.074C20.027 47.194 5.298 27.83.925 12.282-1.802 2.596 2.067.194 5.198.01c1.906-.106 3.749.602 5.164 1.854.469.411.859.904 1.214 1.418 3.775 5.445 5.968 8.817 11.013 13.771 1.45 1.708 4.964 3.066 6.281.753 1.113-1.962 1.332-6.28 1.802-9.124.303-1.82 1.363-3.484 3.208-3.557.942-.044 2.051.114 2.894 1.461.304.478.484 1.023.596 1.581.502 6.257 2.296 12.619 4.947 18.561a46.002 46.002 0 0 0 4.739 8.175c15.709 21.741 32.275 39.448 49.29 52.675 17.542 13.635 36.055 22.879 55.027 27.475l.39.093c18.829 4.495 38.816 4.586 59.421.268 18.991-3.978 39.03-11.799 59.678-23.272 5.267-2.927 10.025-6.685 14.138-11.088 3.435-3.677 7.162-7.95 10.983-12.444.321-.467.709-.894 1.173-1.213 1.315-.904 2.39-.606 3.241-.194 1.664.809 2.284 2.862 1.525 4.544-1.082 2.381-2.826 6.532-2.985 8.776l-.006.1c-.127 2.233 2.251 3.75 4.261 2.761 6.601-2.538 12.772-5.501 18.395-8.995.532-.327 1.086-.624 1.682-.817 1.8-.585 3.769-.503 5.475.352 2.803 1.416 5.231 5.023-.963 12.96z" fill="#ffbd9c"/><path d="m173.817 432.214-49.99-1c1.361-68.056-.996-142.043-7.205-226.188l49.864-3.68c6.326 85.718 8.723 161.234 7.331 230.867z"/><path d="m83.923 432.653-49.321-8.213c11.544-69.328 27.908-143.81 50.026-227.7l48.348 12.746c-21.72 82.381-37.765 155.379-49.052 223.167z"/><path d="m106.294 105.395 84.224 20.109-22.548 94.44-84.224-20.108z" fill="#ee5a25"/><path d="M177.819 164.846c-42.741 0-79.07-15.103-119.558-47.921l37.782-46.611c41.24 33.43 70.182 40.705 119.103 29.946l12.888 58.6c-17.948 3.947-34.518 5.986-50.215 5.986z" fill="#ee5a25"/><path d="M180.537 81.855a23.55 23.55 0 0 1-2.396 6.104c-5.009 8.854-15.428 13.712-25.809 11.233-12.566-3-20.335-15.628-17.331-28.209a23.195 23.195 0 0 1 1.548-4.45c.001-.005.002-.01.009-.014 3.134-6.745 9.29-11.502 16.377-13.005a23.151 23.151 0 0 1 8.589-.195c.558.091 1.123.2 1.682.333s1.106.291 1.646.461a23.345 23.345 0 0 1 5.865 2.798c6.682 4.432 10.725 12.105 10.454 20.261a23.877 23.877 0 0 1-.634 4.684z" fill="#ffbd9c"/><path d="M181.17 77.171a23.35 23.35 0 0 1-8.178-.487 23.308 23.308 0 0 1-13.224-8.636 23.358 23.358 0 0 1-4.742-14.879 23.151 23.151 0 0 1 6.498.149c.558.091 1.123.2 1.682.333s1.106.291 1.646.461a23.345 23.345 0 0 1 5.865 2.798c6.682 4.432 10.725 12.105 10.454 20.261z"/><path d="M170.716 56.911a20.448 20.448 0 0 1-.839 1.635 23.407 23.407 0 0 1-10.11 9.503 23.304 23.304 0 0 1-15.699 1.73 23.349 23.349 0 0 1-7.511-3.259c3.134-6.745 9.29-11.502 16.377-13.005a23.151 23.151 0 0 1 8.589-.195c.558.091 1.123.2 1.682.333s1.106.291 1.646.461a23.345 23.345 0 0 1 5.865 2.798z"/></svg></g><g transform="translate(2636.0 930.0) rotate(17.264861200404425 125.0 119.0) scale(1.2197025877210101 1.2203250781930985)"><svg width="204.968" height="195.03" viewBox="0 0 204.968 195.03"><path d="m166.002 194.842-63.388-33.205-63.29 33.393 11.992-70.546L0 74.611l70.799-10.395L102.373 0l31.765 64.122 70.83 10.185-51.168 50.024z" fill="#EBEBEB"/></svg></g><g transform="translate(1438.0 110.0) rotate(0.0 245.0 193.0) scale(0.8650442673163324 0.8620323865120963)"><svg width="566.445" height="447.779" viewBox="0 0 566.445 447.779"><path d="m255.44 367.006 12.105-30.656 47.323 18.685-12.104 30.656z" fill="#ffbe9d"/><path d="m306.138 446.984 32.725-82.883-31.718-12.523a26.994 26.994 0 0 1-1.614 13.712c-3.502 8.87-10.515 13.593-20.378 13.446l4.842 56.566a9.751 9.751 0 0 0 1.258 4.027c4.143 7.162 14.885 7.655 14.885 7.655z"/><path d="M319.451 70.918c0 3.306-.473 6.5-1.338 9.514-4.126 14.323-17.321 24.791-32.96 24.791-18.93 0-34.297-15.353-34.297-34.305 0-2.352.233-4.644.691-6.868 0-.008 0-.015.007-.023 2.172-10.678 9.326-19.553 18.915-24.107a32.028 32.028 0 0 1 2.863-1.202 33.943 33.943 0 0 1 9.311-1.999c.827-.06 1.668-.098 2.51-.098s1.676.038 2.502.098c3.246.233 6.372.917 9.311 1.991 11.032 4.043 19.403 13.602 21.793 25.317a35.043 35.043 0 0 1 .691 6.891z" fill="#ffbe9d"/><path d="m163.004 280.854 119.3 37.998-20.372 63.965-119.301-37.998c-17.651-5.622-27.419-24.517-21.796-42.17 5.622-17.651 24.517-27.418 42.17-21.796z" fill="gray"/><path d="m246.102 386.482-12.104-30.656 47.322-18.685 12.105 30.656z" fill="#ffbe9d"/><path d="m242.727 447.779-32.725-82.883 31.718-12.523a26.994 26.994 0 0 0 1.614 13.712c3.502 8.87 10.515 13.593 20.378 13.446l-4.842 56.566a9.751 9.751 0 0 1-1.258 4.027c-4.143 7.162-14.885 7.655-14.885 7.655zM318.76 64.027a34.208 34.208 0 0 1-11.821 2.089 34.15 34.15 0 0 1-21.785-7.808c-5.952-4.892-10.228-11.761-11.821-19.591a33.943 33.943 0 0 1 9.311-1.999c.827-.06 1.668-.098 2.51-.098s1.676.038 2.502.098c3.246.233 6.372.917 9.311 1.991 11.032 4.043 19.403 13.602 21.793 25.317z"/><path d="M296.967 38.71a30.217 30.217 0 0 1-.639 2.615c-1.939 6.748-5.899 12.64-11.174 16.983a34.152 34.152 0 0 1-21.785 7.808 34.23 34.23 0 0 1-11.813-2.089c2.172-10.678 9.326-19.553 18.915-24.107a32.028 32.028 0 0 1 2.863-1.202 33.943 33.943 0 0 1 9.311-1.999c.827-.06 1.668-.098 2.51-.098s1.676.038 2.502.098c3.246.233 6.372.917 9.311 1.991z"/><circle cx="286.458" cy="19.451" r="19.451"/><path d="M71.38 231.174s-40.042 3.161-61.117-9.835c-12.294-7.581-11.32-13.25-8.375-16.658 1.79-2.072 4.363-3.261 7.068-3.473.893-.07 1.79.021 2.674.167 9.376 1.554 19.181 2.104 29.329 1.848 3.205.214 5.53-3.099 4.14-5.995a7.326 7.326 0 0 0-.062-.126c-1.446-2.892-6.035-7.439-8.772-10.007-1.93-1.811-2.228-4.88-.466-6.855.904-1.013 2.171-2.001 4.402-1.524.796.17 1.54.526 2.221.97l33.749 21.983zm423.685 2.906s40.042 3.161 61.117-9.835c12.294-7.581 11.32-13.25 8.375-16.658-1.79-2.072-4.363-3.261-7.068-3.473-.893-.07-1.79.021-2.674.167-9.376 1.554-19.181 2.104-29.329 1.848-3.205.214-5.53-3.099-4.14-5.995l.062-.126c1.446-2.892 6.035-7.439 8.772-10.007 1.93-1.811 2.228-4.88.466-6.855-.904-1.013-2.171-2.001-4.402-1.524-.796.17-1.54.526-2.221.97l-33.749 21.983z" fill="#ffbe9d"/><path d="M507.224 246.123c-53.065 6.296-121.957 32.568-160.99-19.28v36.8h-124.09v-35.05c-39.356 48.849-107.368 22.914-159.06 16.9l10.88-58.48c29.762 4.012 76.836 22.243 102.859-.751 14.509-10.057 17.927-27.666 29.554-39.92 34.85-41.041 101.861-48.277 143.781-14.598 22.144 16.667 30.856 45.779 43.326 55.149 25.808 22.978 73.449 4.796 102.85.75z" fill="#D0E4FF"/><path d="m275.256 374.435 13.735-5.424.367.93-13.734 5.424z"/><path d="M143.593 280.558c84.576-26.921 170.221-31.884 281.671-7.215l-80.814 73.088-144.876-12.182-55.981-53.692z" fill="gray"/><path d="m269.294 329.522 137.425-54.26c18.139-7.163 38.68 1.75 45.842 19.888 7.162 18.14-1.75 38.68-19.889 45.843l-137.425 54.26z" fill="gray"/><path d="m271.22 334.22-.491-.871c34.489-19.431 69.693-33.33 99.127-39.135l.193.981c-29.332 5.785-64.43 19.644-98.829 39.024z"/><path d="M294.207 322.237c-30.754-14.727-62.699-25.238-103.581-34.081l.211-.978c40.96 8.86 72.974 19.394 103.801 34.156l-.432.902z"/></svg></g><g transform="translate(2074.0 144.0) rotate(0.0 72.0 72.0) scale(0.48855956355345653 0.4854483486328224)"><svg width="294.744" height="296.633" viewBox="0 0 294.744 296.633"><path fill="#FFF" stroke="#000" stroke-width="4.972" stroke-linecap="round" stroke-linejoin="round" stroke-miterlimit="10" d="m267.488 262.003-97.994-31.004-81.096 63.149-.795-102.778-85.117-57.613 97.502-32.516 28.489-98.755 61.056 82.682 102.725-3.422-59.769 83.616 34.999 96.641z"/></svg></g><g transform="translate(356.0 234.0) rotate(0.0 189.0 187.0) scale(1.5278653538342144 1.5206899215665546)"><svg width="247.404" height="245.941" viewBox="0 0 247.404 245.941"><path d="M221.344 2.036H26.079c-13.845 0-25.071 11.225-25.071 25.071v196.52c0 11.908 9.651 21.565 21.559 21.565h202.289c11.908 0 21.559-9.657 21.559-21.565V27.107c0-13.846-11.225-25.071-25.071-25.071z" fill="#fff"/><path d="M224.856 245.941H22.567c-12.301 0-22.309-10.01-22.309-22.314V27.107c0-14.239 11.583-25.822 25.821-25.822h195.265c14.238 0 25.821 11.583 25.821 25.821v196.52c0 12.305-10.008 22.314-22.309 22.314zM26.079 2.785c-13.411 0-24.321 10.911-24.321 24.322v196.52c0 11.478 9.335 20.814 20.809 20.814h202.289c11.474 0 20.809-9.337 20.809-20.814V27.107c0-13.411-10.91-24.321-24.321-24.321H26.079z"/><path d="M225.792 0H21.612C9.675 0 0 9.681 0 21.619v40.557h247.404V21.619C247.404 9.681 237.729 0 225.792 0zM69.412 45.148c-7.591 0-13.744-6.154-13.744-13.744s6.154-13.738 13.744-13.738S83.15 23.82 83.15 31.404s-6.154 13.744-13.738 13.744zm106.958 0c-7.584 0-13.738-6.154-13.738-13.744s6.154-13.738 13.738-13.738 13.744 6.154 13.744 13.738-6.154 13.744-13.744 13.744z" fill="#ee5a25"/><g fill="#B4B3B3"><path d="M32.051 85.303h40.471v34.855H32.051zm70.779 0h40.471v34.855H102.83zm70.338 0h40.471v34.855h-40.471zM32.242 136.035h40.471v34.855H32.242zm70.778 0h40.471v34.855H103.02zm70.338 0h40.471v34.855h-40.471zM32.242 185.994h40.471v34.855H32.242zm70.778 0h40.471v34.855H103.02zm70.338 0h40.471v34.855h-40.471z"/></g></svg></g><g transform="translate(722.0 680.0) rotate(0.0 132.0 126.0) scale(2.948205391642284 2.9381244971959566)"><svg width="89.546" height="85.769" viewBox="0 0 89.546 85.769"><path d="m89.546 6.476-6.574 30.097c-3.979-1.905-11.796-5.367-23.617-5.367-9.842 0-24.517 2.582-24.517 12.474s17.725 9.887 24.517 9.887c9.127 0 25.786-5.152 29.521-7.52-.025 7.52 0 32.405 0 32.405s-13.742 7.317-37.747 7.317C23.1 85.769 0 68.585 0 43.68 0 15.048 25.269 0 53.897 0 73.37 0 89.546 6.476 89.546 6.476z" fill="#0a4ed0" fill-rule="evenodd"/></svg></g><g transform="translate(1014.0 680.0) rotate(0.0 145.0 126.0) scale(2.970763588682415 2.972048590635688)"><svg width="97.618" height="84.79" viewBox="0 0 97.618 84.79"><path d="M0 42.048C0 68.094 17.134 84.79 49.472 84.79c28.913 0 48.146-14.564 48.146-42.742S78.385 0 49.472 0C20.824 0 0 13.395 0 42.048zm31.38.024c0 10.66 7.767 16.316 18.092 16.316s16.766-5.557 16.766-16.316-6.441-16.279-16.766-16.279c-10.23.001-18.092 5.624-18.092 16.279z" fill="#0a4ed0" fill-rule="evenodd"/></svg></g><g transform="translate(1332.0 686.0) rotate(0.0 159.0 120.0) scale(2.888047298585947 2.875077866692223)"><svg width="110.109" height="83.476" viewBox="0 0 110.109 83.476"><path d="M98.043 0H77.736L55.551 57.663 32.373 0H0v83.476h32.372V54.091l11.811 29.385h21.743l11.811-30.699v30.699h32.372V0z" fill="#0a4ed0" fill-rule="evenodd"/></svg></g><g transform="translate(1692.0 686.0) rotate(0.0 47.0 120.0) scale(2.903743976275794 2.875077866692223)"><svg width="32.372" height="83.476" viewBox="0 0 32.372 83.476"><path d="M0 0h32.372v83.476H0z" fill="#0a4ed0"/></svg></g><g transform="translate(1828.0 686.0) rotate(0.0 123.0 120.0) scale(2.886341503478863 2.875077866692223)"><svg width="85.229" height="83.476" viewBox="0 0 85.229 83.476"><path d="M52.857 0v40.499L32.372.005V0H0v83.476h32.372V42.984l20.484 40.492h32.373V0z" fill="#0a4ed0" fill-rule="evenodd"/></svg></g><g transform="translate(2102.0 680.0) rotate(0.0 136.0 126.0) scale(2.924888434862089 2.937953225919276)"><svg width="92.995" height="85.774" viewBox="0 0 92.995 85.774"><path d="M92.995 38.078 90.099 66.83S79.162 85.774 51.133 85.774C18.881 85.774 0 68.59 0 43.68 0 15.052 25.273 0 53.901 0c19.473 0 32.471 8.044 32.471 8.044l-4.458 25.03c-3.979-1.909-16.188-5.644-28.013-5.644-8.685 0-22.332 2.533-22.332 16.25 0 9.887 8.871 16.481 19.563 16.481 8.697 0 12.816-6.259 12.816-6.259H48.529l1.215-15.597z" fill="#0a4ed0" fill-rule="evenodd"/></svg></g><g transform="translate(960.0 994.0) rotate(0.0 122.0 126.0) scale(2.852533376978653 2.8494538546778534)"><svg width="85.538" height="88.438" viewBox="0 0 85.538 88.438"><path d="m81.187 6.64-3.512 28.509c-6.14-4.201-23.352-9.598-35.14-9.598-4.954 0-7.776.299-7.776 2.354s2.487 2.663 7.776 2.885c13.312.56 43.444 5.921 42.998 27.131 0 22.756-21.989 30.517-40.49 30.517-19.753 0-35.586-5.343-42.457-8.175L0 42.711c6.131 9.245 31.26 19.575 45.043 19.575 3.38 0 6.474-.462 6.474-2.595 0-1.677-2.149-2.179-5.004-2.612C41.365 56.301.098 51.756.098 25.993.098 6.589 16.988 0 40.431 0c20.358.001 35.942 4.423 40.756 6.64z" fill="#0a4ed0" fill-rule="evenodd"/></svg></g><g transform="translate(1222.0 994.0) rotate(0.0 145.0 126.0) scale(2.970763588682415 2.972048590635688)"><svg width="97.618" height="84.79" viewBox="0 0 97.618 84.79"><path d="M0 42.048C0 68.094 17.134 84.79 49.472 84.79c28.913 0 48.146-14.564 48.146-42.742S78.385 0 49.472 0C20.824 0 0 13.395 0 42.048zm31.38.024c0 10.66 7.767 16.316 18.092 16.316s16.766-5.557 16.766-16.316-6.441-16.279-16.766-16.279c-10.23.001-18.092 5.624-18.092 16.279z" fill="#0a4ed0" fill-rule="evenodd"/></svg></g><g transform="translate(1538.0 994.0) rotate(0.0 145.0 126.0) scale(2.970763588682415 2.972048590635688)"><svg width="97.618" height="84.79" viewBox="0 0 97.618 84.79"><path d="M0 42.048C0 68.094 17.134 84.79 49.472 84.79c28.913 0 48.146-14.564 48.146-42.742S78.385 0 49.472 0C20.824 0 0 13.395 0 42.048zm31.38.024c0 10.66 7.767 16.316 18.092 16.316s16.766-5.557 16.766-16.316-6.441-16.279-16.766-16.279c-10.23.001-18.092 5.624-18.092 16.279z" fill="#0a4ed0" fill-rule="evenodd"/></svg></g><g transform="translate(1856.0 998.0) rotate(0.0 123.0 120.0) scale(2.886341503478863 2.875077866692223)"><svg width="85.229" height="83.476" viewBox="0 0 85.229 83.476"><path d="M52.857 0v40.499L32.372.005V0H0v83.476h32.372V42.984l20.484 40.492h32.373V0z" fill="#0a4ed0" fill-rule="evenodd"/></svg></g><g transform="translate(268.0 546.0) rotate(0.0 87.0 87.0) scale(0.7724167321445219 0.7744657743990101)"><svg width="225.267" height="224.671" viewBox="0 0 225.267 224.671"><path d="M225.267 13.981v141.787c0 7.722-6.26 13.981-13.981 13.981h-49.843l-8.2 10.753-29.499 38.669c-5.596 7.336-16.638 7.335-22.233-.002l-29.487-38.667-8.2-10.753H13.981C6.259 169.749 0 163.489 0 155.768V13.981C0 6.26 6.26 0 13.981 0h197.305c7.722 0 13.981 6.26 13.981 13.981z" fill="#d0e4ff"/><g fill="#fff"><path d="M159.408 124.742h-.003a42.59 42.59 0 0 1-7.245-23.586l-.115-28.028c-.078-19.057-13.192-34.968-30.85-39.445-6.827-1.936-13.647-1.911-20.458.074-17.621 4.622-30.599 20.65-30.519 39.709l.116 28.023a42.587 42.587 0 0 1-7.055 23.651l-6.448 9.758 109.105-.449-6.527-9.707zm-50.161 26.454c8.077 1.143 15.549-4.289 17.056-12.218l-29.829.13c1.229 6.157 6.204 11.158 12.773 12.088z"/></g></svg></g></svg>