<svg xmlns="http://www.w3.org/2000/svg" viewBox="0 0 3000 3000" width="3000" height="3000"><g transform="translate(326.0 660.0) rotate(0.0 1238.0 1083.0) scale(2.0 2.0)"><svg width="1238" height="1083" viewBox="0 0 1238 1083"><clipPath id="a"><rect width="1238" height="1083" fill="#FFCFC9" rx="0" ry="0" stroke="#E01A00" stroke-width="0"/></clipPath><rect width="1238" height="1083" fill="#FFCFC9" rx="0" ry="0" clip-path="url(#a)"/></svg></g><g transform="translate(578.0 722.0) rotate(0.0 1086.0 947.0) scale(1.9988772420647705 1.9980315064461307)"><svg width="1086.61" height="947.933" viewBox="0 0 1086.61 947.933"><path d="m516.152 947.933 376.121-153.175 194.337-165.45-149.692-131.309-554.125 97.169z" fill="#231f20" opacity=".5"/><path d="m811.97 672.311-2.367-165.512-168.528-47.608-4.237 3.934-.079-5.517L468.232 410l-3.839 3.563-.048-3.316-168.527-47.608-95.21 88.388.087 6.138-5.072-1.433-95.211 88.388.104 7.252-5.305-1.499L0 638.261l2.368 165.512 168.527 47.608 3.839-3.564.047 3.317 168.527 47.608 4.238-3.934.079 5.517 168.527 47.608 95.211-88.388-.105-7.252 5.306 1.499 95.211-88.388-.088-6.138 5.072 1.433z" fill="#231f20"/><path d="m794.524 534.213-64.677 60.042c-4.222 3.919-7.564 13.059-7.459 20.398l1.608 112.433c.105 7.348 3.618 10.115 7.839 6.196l64.677-60.042c4.227-3.924 7.564-13.049 7.459-20.398l-1.608-112.433c-.105-7.338-3.612-10.12-7.839-6.196m-100.195 93.093-64.677 60.042c-4.222 3.919-7.564 13.059-7.459 20.398l1.608 112.433c.105 7.348 3.618 10.115 7.839 6.196l64.677-60.042c4.227-3.924 7.564-13.049 7.459-20.398l-1.608-112.433c-.105-7.339-3.612-10.12-7.839-6.196" fill="#fd98a4"/><path d="m13.86 668.61 1.608 112.433c.105 7.339 6.257 15.011 13.73 17.122l114.484 32.341c7.482 2.114 13.454-2.133 13.349-9.473L155.423 708.6c-.105-7.348-6.247-15.008-13.729-17.121l-114.485-32.34c-7.472-2.111-13.454 2.123-13.349 9.471m172.413 47.361 1.608 112.433c.105 7.339 6.257 15.011 13.73 17.122l114.484 32.341c7.482 2.114 13.454-2.133 13.349-9.473l-1.608-112.433c-.105-7.348-6.247-15.008-13.729-17.121l-114.484-32.341c-7.473-2.111-13.455 2.124-13.35 9.472m172.844 49.191 1.608 112.433c.105 7.339 6.257 15.011 13.73 17.122l114.484 32.341c7.482 2.114 13.454-2.133 13.349-9.473l-1.608-112.433c-.105-7.348-6.247-15.008-13.729-17.121L372.467 755.69c-7.473-2.111-13.455 2.124-13.35 9.472" fill="#1e65fd"/><path d="m593.916 721.447-64.677 60.042c-4.222 3.919-7.564 13.059-7.459 20.398l1.608 112.433c.105 7.348 3.618 10.115 7.839 6.196l64.677-60.042c4.227-3.924 7.564-13.049 7.459-20.398l-1.608-112.433c-.104-7.338-3.612-10.12-7.839-6.196" fill="#fd98a4"/><path d="M810.898 586.762 533.249 751.646l-7.522-72.881L807.97 475.352z" fill="#231f20" opacity=".5"/><path d="m849.063 538.11-2.368-165.512-144.797-65.094-4.831 2.874-.071-4.886-144.797-65.095-4.85 2.886-.051-3.607L402.5 174.582l-128.454 76.43.081 5.626-4.549-2.045-128.454 76.43.062 4.328-4.53-2.037-128.454 76.43 2.368 165.512 144.797 65.094 4.85-2.886.051 3.607 144.798 65.095 4.831-2.875.07 4.887 144.798 65.094 128.454-76.43-.062-4.327 4.53 2.036 128.454-76.43-.081-5.626 4.549 2.045z" fill="#231f20"/><path d="m20.164 441.492 1.608 112.433c.105 7.339 5.403 15.641 11.824 18.527l98.364 44.22c6.429 2.89 11.548-.729 11.443-8.068l-1.608-112.433c-.105-7.348-5.394-15.636-11.823-18.526l-98.364-44.22c-6.422-2.887-11.549.719-11.444 8.067m149.699 65.816 1.608 112.433c.105 7.339 5.403 15.641 11.824 18.527l98.364 44.22c6.429 2.89 11.548-.729 11.443-8.068l-1.608-112.433c-.105-7.348-5.394-15.636-11.823-18.526l-98.364-44.22c-6.422-2.887-11.549.718-11.444 8.067" fill="#f7dbda"/><path d="m826.286 398.095-87.259 51.919c-5.696 3.389-10.235 12.099-10.13 19.438l1.608 112.433c.105 7.348 4.814 10.545 10.51 7.156l87.259-51.919c5.703-3.393 10.234-12.089 10.129-19.437l-1.608-112.433c-.104-7.339-4.806-10.551-10.509-7.157m-132.922 80.011-87.26 51.919c-5.696 3.389-10.235 12.099-10.13 19.438l1.608 112.433c.105 7.348 4.814 10.545 10.51 7.156l87.26-51.919c5.703-3.393 10.234-12.089 10.129-19.437l-1.608-112.433c-.104-7.339-4.806-10.55-10.509-7.157" fill="#1e65fd"/><path d="m319.561 574.414 1.608 112.433c.105 7.339 5.403 15.641 11.824 18.527l98.364 44.22c6.429 2.89 11.548-.729 11.443-8.068l-1.608-112.433c-.105-7.348-5.394-15.636-11.823-18.526l-98.364-44.22c-6.421-2.886-11.549.719-11.444 8.067" fill="#f7dbda"/><path d="m560.442 556.827-87.259 51.919c-5.696 3.389-10.235 12.099-10.13 19.438l1.608 112.433c.105 7.348 4.814 10.545 10.51 7.156l87.259-51.919c5.703-3.393 10.234-12.089 10.129-19.437l-1.608-112.433c-.104-7.339-4.806-10.55-10.509-7.157" fill="#1e65fd"/><path d="m271.503 555.395 93.761 97.101 87.191-24.318 18.243-52.369zm305.319-208.576-20.918 178.399 160.959-33.37 130.228-36.32.147-78.219z" fill="#231f20" opacity=".5"/><path d="m806.576 442.925-2.368-165.513-86.085-88.998-5.272 1.412-.095-6.621-86.085-88.998-4.16 1.115-.09-6.324L536.336 0 362.978 46.451l.085 5.913-5.171-5.346-173.358 46.451.097 6.728-4.383-4.531L6.89 142.117l2.368 165.512 86.085 88.999 4.16-1.115.09 6.323 86.086 88.999 5.271-1.413.095 6.621 86.085 88.999 173.358-46.451-.097-6.729 4.383 4.531 173.357-46.451-.084-5.912 5.171 5.346z" fill="#231f20"/><path d="m515.426 14.567-117.77 31.556c-7.687 2.06-10.829 6.936-7.012 10.882l58.479 60.458c3.822 3.951 13.157 5.478 20.844 3.418l117.77-31.556c7.697-2.062 10.834-6.931 7.012-10.882L536.27 17.985c-3.817-3.946-13.147-5.481-20.844-3.418M336.982 61.584 219.212 93.14c-7.687 2.06-10.829 6.936-7.012 10.882l58.479 60.458c3.822 3.951 13.157 5.478 20.844 3.418l117.77-31.556c7.697-2.062 10.834-6.931 7.012-10.882l-58.479-60.458c-3.817-3.946-13.147-5.48-20.844-3.418" fill="#9fc7fe"/><path d="m14.156 175.777 1.608 112.433c.105 7.339 3.289 16.501 7.106 20.448l58.479 60.458c3.822 3.951 6.831 1.192 6.726-6.147l-1.608-112.433c-.105-7.348-3.284-16.495-7.106-20.447l-58.479-60.458c-3.817-3.946-6.831-1.202-6.726 6.146" fill="#1e65fd"/><g fill="#9fc7fe"><path d="m159.338 110.233-117.77 31.556c-7.687 2.06-10.829 6.936-7.012 10.882l58.479 60.458c3.822 3.951 13.157 5.478 20.844 3.418l117.77-31.556c7.697-2.062 10.834-6.931 7.012-10.882l-58.479-60.458c-3.817-3.946-13.147-5.481-20.844-3.418m446.424-1.459-117.77 31.556c-7.687 2.06-10.829 6.936-7.012 10.882l58.479 60.458c3.822 3.951 13.157 5.478 20.844 3.418l117.77-31.556c7.697-2.062 10.834-6.931 7.012-10.882l-58.479-60.458c-3.817-3.946-13.147-5.481-20.844-3.418m-178.444 47.017-117.77 31.556c-7.687 2.06-10.829 6.936-7.012 10.882l58.479 60.458c3.822 3.951 13.157 5.478 20.844 3.418l117.77-31.556c7.697-2.062 10.834-6.931 7.012-10.882l-58.479-60.458c-3.817-3.946-13.147-5.48-20.844-3.418M249.674 204.44l-117.77 31.556c-7.687 2.06-10.829 6.936-7.012 10.882l58.479 60.458c3.822 3.951 13.157 5.478 20.844 3.418l117.77-31.556c7.697-2.062 10.834-6.931 7.012-10.882l-58.479-60.458c-3.817-3.946-13.147-5.481-20.844-3.418"/></g><path d="m104.491 269.984 1.608 112.433c.105 7.339 3.289 16.501 7.106 20.448l58.479 60.458c3.822 3.951 6.831 1.192 6.726-6.147l-1.608-112.433c-.105-7.348-3.284-16.495-7.106-20.447l-58.479-60.458c-3.817-3.946-6.831-1.202-6.726 6.146" fill="#1e65fd"/><path d="m697.213 202.981-117.77 31.556c-7.687 2.06-10.829 6.936-7.012 10.882l58.479 60.458c3.822 3.951 13.157 5.478 20.844 3.418l117.77-31.556c7.697-2.062 10.834-6.931 7.012-10.882l-58.479-60.458c-3.817-3.946-13.147-5.481-20.844-3.418" fill="#9fc7fe"/><path d="m776.602 298.101-117.77 31.556c-7.687 2.06-13.843 9.69-13.738 17.029l1.608 112.433c.105 7.348 6.431 11.624 14.119 9.565l117.77-31.556c7.697-2.062 13.843-9.68 13.738-17.029l-1.608-112.433c-.106-7.339-6.422-11.628-14.119-9.565" fill="#fd98a4"/><path d="m518.769 249.998-117.77 31.556c-7.687 2.06-10.829 6.936-7.012 10.882l58.479 60.458c3.822 3.951 13.157 5.478 20.844 3.418l117.77-31.556c7.697-2.062 10.834-6.931 7.012-10.882l-58.479-60.458c-3.817-3.946-13.147-5.48-20.844-3.418" fill="#9fc7fe"/><path d="m598.158 345.118-117.77 31.556c-7.687 2.06-13.843 9.69-13.738 17.029l1.608 112.433c.105 7.348 6.431 11.624 14.119 9.565l117.77-31.556c7.697-2.062 13.843-9.68 13.738-17.029l-1.608-112.433c-.106-7.338-6.422-11.627-14.119-9.565" fill="#fd98a4"/><path d="m195.943 364.191 1.608 112.433c.105 7.339 3.289 16.501 7.106 20.448l58.479 60.458c3.822 3.951 6.831 1.192 6.726-6.147l-1.608-112.433c-.105-7.348-3.284-16.495-7.106-20.447l-58.479-60.458c-3.817-3.947-6.831-1.202-6.726 6.146" fill="#1e65fd"/><path d="m341.125 298.647-117.77 31.556c-7.687 2.06-10.829 6.936-7.012 10.882l58.479 60.458c3.822 3.951 13.157 5.478 20.844 3.418l117.77-31.556c7.697-2.062 10.834-6.931 7.012-10.882l-58.479-60.458c-3.817-3.946-13.147-5.481-20.844-3.418" fill="#9fc7fe"/><path d="m420.514 393.767-117.77 31.556c-7.687 2.06-13.843 9.69-13.738 17.029l1.608 112.433c.105 7.348 6.431 11.624 14.119 9.565l117.77-31.556c7.697-2.062 13.843-9.68 13.738-17.029l-1.608-112.433c-.106-7.339-6.422-11.627-14.119-9.565" fill="#fd98a4"/><path d="m369.435 753.596 136.927 64.171-.161-65.335z" fill="#231f20" opacity=".5"/></svg></g><g transform="translate(416.0 114.0) rotate(0.0 911.0 672.0) scale(2.001691880074267 2.0006162612590486)"><svg width="910.23" height="671.793" viewBox="0 0 910.23 671.793"><path d="M887.805 500.918 409.233 615.967l-107.743 25.9-33.102 7.963 177.496-222.187 131.464-164.565 38.366 29.385z" fill="#fefdfd"/><path d="M586.356 358.95a96.578 96.578 0 0 0-10.675 2.24 104.556 104.556 0 0 0-10.646 3.473c-43.992 16.826-77.651 61.783-77.03 105.207.046 3.261.296 6.431.722 9.494.926 6.859 2.778 13.226 5.422 18.98 11.919 25.928 39.896 39.96 73.297 34.807 3.498-.511 7.057-1.271 10.663-2.237a101.35 101.35 0 0 0 10.657-3.477c33.306-12.721 60.669-41.581 71.733-73.668 2.462-7.121 4.114-14.428 4.853-21.733a84.01 84.01 0 0 0 .432-9.803c-.621-43.424-35.291-70.071-79.428-63.283z" fill="#9fc7fe"/><g fill="#1e65fd"><path d="m504.085 473.56 64.126-17.182-1.109-77.538c-36.329 13.895-64.126 51.02-63.613 86.88.038 2.694.244 5.312.596 7.84zm80.63-98.894 1.102 76.995 25.156-6.741 38.969-10.442c.277-2.697.396-5.403.358-8.095-.513-35.86-29.144-57.865-65.592-52.26zm1.342 93.803.258 17.994.383 26.797c27.504-10.505 50.1-34.338 59.238-60.835l-37.292 9.992zm-17.181 34.472-.426-29.754-59.888 16.047c9.843 21.411 32.947 32.999 60.529 28.744z"/></g><path d="M649.061 324.235 409.233 615.967l-89.618 46.957 126.269-235.281 121.889-180.838 47.941 45.658z" fill="#231f20" opacity=".5"/><path d="m308.967 0 29.932 38.674 239.715 234.953 21.167 11.41 32.71 30.876 244.952 187.665 32.786 19.303-290.814-285.037z" fill="#231f20"/><path d="m308.967 0 290.814 285.037-3.556 10.238-291.811 365.281-13.599 11.237L0 386.756z" fill="#fd98a4"/><path d="M910.23 522.881 599.781 285.037 290.814 671.793l28.801-8.869 285.323-357.159 289.784 222.012z" fill="#e6ecf4"/></svg></g></svg>