<svg version="1.2" xmlns="http://www.w3.org/2000/svg" viewBox="0 0 3000 3000" width="3000" height="3000">
	<title>LivingSpace-svg</title>
	<style>
		.s0 { opacity: .5;fill: #231f20 } 
		.s1 { fill: #231f20 } 
		.s2 { fill: #fd98a4 } 
		.s3 { fill: #1e65fd } 
		.s4 { fill: #f7dbda } 
		.s5 { fill: #9fc7fe } 
		.s6 { fill: #fefdfd } 
		.s7 { fill: #e6ecf4 } 
	</style>
	<g>
	</g>
	<g>
		<g>
			<path class="s0" d="m1609.7 2616l751.8-306 388.5-330.6-299.2-262.4-1107.6 194.2z"/>
			<path class="s1" d="m2201 2065.3l-4.7-330.7-336.9-95.1-8.4 7.8-0.2-11-336.9-95.1-7.6 7.1-0.1-6.6-336.9-95.1-190.3 176.6 0.2 12.2-10.2-2.8-190.3 176.6 0.2 14.5-10.6-3-190.3 176.6 4.7 330.7 336.9 95.1 7.7-7.1 0.1 6.6 336.8 95.1 8.5-7.8 0.2 11 336.8 95.1 190.3-176.6-0.2-14.5 10.6 3 190.4-176.6-0.2-12.3 10.1 2.9z"/>
			<path class="s2" d="m2166.2 1789.4l-129.3 119.9c-8.5 7.9-15.1 26.1-14.9 40.8l3.2 224.6c0.2 14.7 7.2 20.3 15.6 12.4l129.3-119.9c8.5-7.9 15.1-26.1 14.9-40.8l-3.2-224.6c-0.2-14.7-7.2-20.3-15.6-12.4zm-200.3 186l-129.3 119.9c-8.4 7.9-15.1 26.1-14.9 40.8l3.2 224.6c0.2 14.7 7.2 20.3 15.7 12.4l129.3-119.9c8.4-7.9 15.1-26.1 14.9-40.8l-3.3-224.6c-0.2-14.7-7.2-20.3-15.6-12.4z"/>
			<path class="s3" d="m605.7 2057.9l3.2 224.6c0.2 14.7 12.5 30 27.5 34.3l228.8 64.6c15 4.2 26.9-4.3 26.7-19l-3.2-224.6c-0.2-14.7-12.5-30-27.5-34.2l-228.8-64.6c-14.9-4.2-26.9 4.2-26.7 18.9zm344.6 94.6l3.3 224.7c0.2 14.6 12.5 30 27.4 34.2l228.8 64.6c15 4.2 26.9-4.3 26.7-18.9l-3.2-224.7c-0.2-14.6-12.5-30-27.4-34.2l-228.9-64.6c-14.9-4.2-26.9 4.3-26.7 18.9zm345.5 98.3l3.2 224.7c0.3 14.6 12.6 30 27.5 34.2l228.8 64.6c15 4.2 26.9-4.3 26.7-18.9l-3.2-224.7c-0.2-14.7-12.5-30-27.4-34.2l-228.9-64.6c-14.9-4.2-26.9 4.2-26.7 18.9z"/>
			<path class="s2" d="m1765.2 2163.5l-129.3 119.9c-8.5 7.9-15.1 26.1-14.9 40.8l3.2 224.6c0.2 14.7 7.2 20.3 15.7 12.4l129.2-119.9c8.5-7.9 15.2-26.1 14.9-40.8l-3.2-224.6c-0.2-14.7-7.2-20.3-15.6-12.4z"/>
			<path class="s0" d="m2198.9 1894.4l-555 329.4-15-145.6 564.1-406.4z"/>
			<path class="s1" d="m2275.2 1797.2l-4.8-330.7-289.4-130.1-9.6 5.7-0.2-9.7-289.4-130.1-9.7 5.8-0.1-7.2-289.5-130.1-256.7 152.7 0.1 11.3-9-4.1-256.8 152.7 0.1 8.6-9-4-256.8 152.7 4.7 330.7 289.5 130 9.7-5.7 0.1 7.2 289.4 130 9.6-5.7 0.2 9.8 289.4 130 256.8-152.7-0.1-8.6 9 4 256.8-152.7-0.2-11.2 9.1 4.1z"/>
			<path class="s4" d="m618.3 1604.1l3.2 224.7c0.2 14.6 10.8 31.2 23.7 37l196.6 88.3c12.8 5.8 23.1-1.4 22.8-16.1l-3.2-224.6c-0.2-14.7-10.8-31.3-23.6-37.1l-196.6-88.3c-12.9-5.8-23.1 1.4-22.9 16.1zm299.2 131.5l3.2 224.7c0.3 14.6 10.8 31.2 23.7 37l196.6 88.3c12.9 5.8 23.1-1.4 22.9-16.1l-3.2-224.6c-0.2-14.7-10.8-31.3-23.7-37l-196.6-88.4c-12.8-5.8-23.1 1.4-22.9 16.1z"/>
			<path class="s3" d="m2229.6 1517.4l-174.4 103.7c-11.4 6.8-20.4 24.2-20.2 38.9l3.2 224.6c0.2 14.7 9.6 21.1 21 14.3l174.4-103.7c11.4-6.8 20.5-24.2 20.3-38.8l-3.2-224.7c-0.3-14.7-9.7-21.1-21.1-14.3zm-265.7 159.9l-174.4 103.7c-11.4 6.8-20.4 24.2-20.2 38.8l3.2 224.7c0.2 14.7 9.6 21.1 21 14.3l174.4-103.7c11.4-6.8 20.5-24.2 20.3-38.9l-3.2-224.6c-0.3-14.7-9.7-21.1-21.1-14.3z"/>
			<path class="s4" d="m1216.8 1869.7l3.2 224.6c0.2 14.7 10.8 31.3 23.6 37.1l196.6 88.3c12.9 5.8 23.1-1.4 22.9-16.1l-3.2-224.7c-0.2-14.6-10.8-31.2-23.6-37l-196.7-88.3c-12.8-5.8-23 1.4-22.8 16.1z"/>
			<path class="s3" d="m1698.3 1834.6l-174.5 103.7c-11.4 6.8-20.4 24.2-20.2 38.8l3.2 224.7c0.2 14.7 9.6 21 21 14.3l174.4-103.8c11.4-6.7 20.5-24.1 20.3-38.8l-3.2-224.6c-0.2-14.7-9.6-21.1-21-14.3z"/>
			<path class="s0" d="m1120.7 1831.7l187.4 194 174.3-48.6 36.5-104.6zm610.3-416.8l-41.8 356.5 321.7-66.7 260.3-72.6 0.3-156.2z"/>
			<path class="s1" d="m2190.2 1607l-4.7-330.7-172.1-177.8-10.5 2.8-0.2-13.3-172.1-177.8-8.3 2.3-0.2-12.7-172-177.8-346.6 92.8 0.2 11.8-10.3-10.7-346.5 92.9 0.2 13.4-8.8-9.1-346.5 92.9 4.7 330.7 172.1 177.8 8.3-2.3 0.2 12.7 172 177.8 10.6-2.8 0.2 13.2 172 177.8 346.6-92.8-0.2-13.4 8.7 9 346.6-92.8-0.2-11.8 10.3 10.7z"/>
			<path class="s5" d="m1608.3 751.1l-235.4 63.1c-15.4 4.1-21.7 13.8-14.1 21.7l116.9 120.8c7.7 7.9 26.3 10.9 41.7 6.8l235.4-63c15.4-4.1 21.7-13.9 14-21.8l-116.9-120.8c-7.6-7.8-26.2-10.9-41.6-6.8zm-356.7 93.9l-235.4 63.1c-15.4 4.1-21.7 13.9-14 21.7l116.9 120.8c7.6 7.9 26.3 11 41.6 6.9l235.4-63.1c15.4-4.1 21.7-13.8 14-21.7l-116.8-120.8c-7.7-7.9-26.3-11-41.7-6.9z"/>
			<path class="s3" d="m606.3 1073.2l3.2 224.7c0.2 14.6 6.6 32.9 14.2 40.8l116.9 120.8c7.6 7.9 13.7 2.4 13.5-12.3l-3.3-224.6c-0.2-14.7-6.5-33-14.2-40.9l-116.9-120.8c-7.6-7.9-13.6-2.4-13.4 12.3z"/>
			<g>
				<path class="s5" d="m896.5 942.2l-235.4 63.1c-15.4 4.1-21.7 13.9-14 21.7l116.9 120.8c7.6 7.9 26.3 11 41.6 6.9l235.4-63.1c15.4-4.1 21.7-13.8 14.1-21.7l-116.9-120.8c-7.7-7.9-26.3-11-41.7-6.9zm892.3-2.9l-235.4 63.1c-15.3 4.1-21.6 13.8-14 21.7l116.9 120.8c7.7 7.9 26.3 11 41.7 6.9l235.4-63.1c15.4-4.1 21.6-13.8 14-21.7l-116.9-120.8c-7.6-7.9-26.3-11-41.7-6.9zm-356.6 94l-235.5 63c-15.3 4.1-21.6 13.9-14 21.8l116.9 120.8c7.7 7.9 26.3 10.9 41.7 6.8l235.4-63.1c15.4-4.1 21.7-13.8 14-21.7l-116.9-120.8c-7.6-7.9-26.3-10.9-41.6-6.8zm-355.1 97.2l-235.4 63c-15.4 4.1-21.7 13.9-14.1 21.8l116.9 120.8c7.7 7.9 26.3 10.9 41.7 6.8l235.4-63.1c15.4-4.1 21.7-13.8 14-21.7l-116.9-120.8c-7.6-7.9-26.2-10.9-41.6-6.8z"/>
			</g>
			<path class="s3" d="m786.9 1261.4l3.2 224.7c0.2 14.6 6.6 33 14.2 40.8l116.9 120.8c7.6 7.9 13.6 2.4 13.4-12.2l-3.2-224.7c-0.2-14.7-6.6-33-14.2-40.8l-116.9-120.8c-7.6-7.9-13.6-2.4-13.4 12.2z"/>
			<path class="s5" d="m1971.6 1127.6l-235.4 63c-15.3 4.1-21.6 13.9-14 21.8l116.9 120.8c7.7 7.8 26.3 10.9 41.7 6.8l235.4-63.1c15.4-4.1 21.6-13.8 14-21.7l-116.9-120.8c-7.6-7.9-26.3-11-41.7-6.8z"/>
			<path class="s2" d="m2130.3 1317.6l-235.4 63.1c-15.3 4.1-27.6 19.3-27.4 34l3.2 224.6c0.2 14.7 12.8 23.3 28.2 19.1l235.4-63c15.4-4.1 27.7-19.3 27.5-34l-3.2-224.7c-0.3-14.6-12.9-23.2-28.3-19.1z"/>
			<path class="s5" d="m1615 1221.5l-235.5 63.1c-15.3 4.1-21.6 13.8-14 21.7l116.9 120.8c7.7 7.9 26.3 10.9 41.7 6.8l235.4-63c15.4-4.1 21.7-13.9 14-21.8l-116.9-120.8c-7.6-7.9-26.3-10.9-41.6-6.8z"/>
			<path class="s2" d="m1773.6 1411.6l-235.4 63c-15.3 4.1-27.6 19.4-27.4 34l3.2 224.7c0.2 14.7 12.8 23.2 28.2 19.1l235.4-63.1c15.4-4.1 27.7-19.3 27.5-34l-3.2-224.6c-0.2-14.7-12.9-23.3-28.3-19.1z"/>
			<path class="s3" d="m969.7 1449.7l3.2 224.6c0.2 14.7 6.6 33 14.2 40.9l116.9 120.8c7.6 7.9 13.6 2.3 13.4-12.3l-3.2-224.7c-0.2-14.6-6.6-32.9-14.2-40.8l-116.9-120.8c-7.6-7.9-13.6-2.4-13.4 12.3z"/>
			<path class="s5" d="m1259.9 1318.7l-235.4 63.1c-15.4 4.1-21.7 13.8-14.1 21.7l116.9 120.8c7.7 7.9 26.3 10.9 41.7 6.8l235.4-63c15.4-4.1 21.7-13.9 14-21.8l-116.9-120.8c-7.6-7.8-26.2-10.9-41.6-6.8z"/>
			<path class="s2" d="m1418.6 1508.8l-235.5 63c-15.3 4.1-27.6 19.4-27.4 34l3.2 224.7c0.2 14.7 12.9 23.2 28.2 19.1l235.4-63.1c15.4-4.1 27.7-19.3 27.5-34l-3.2-224.6c-0.2-14.7-12.9-23.3-28.2-19.1z"/>
			<path class="s0" d="m1316.5 2227.7l273.7 128.2-0.4-130.5z"/>
		</g>
	</g>
	<g>
		<g>
			<path class="s6" d="m2193.1 1116.1l-957.9 230.2-215.7 51.8-66.3 16 355.3-444.6 263.2-329.2 76.8 58.8z"/>
			<path class="s5" d="m1589.7 832.1q-2.7 0.4-5.4 0.9-2.7 0.5-5.3 1.1-2.7 0.5-5.4 1.2-2.6 0.6-5.3 1.3-2.7 0.7-5.4 1.5-2.6 0.8-5.3 1.7-2.7 0.9-5.3 1.8-2.7 0.9-5.3 2c-88 33.6-155.4 123.6-154.2 210.4 0.1 6.6 0.6 12.9 1.5 19 1.8 13.7 5.5 26.5 10.8 38 23.9 51.9 79.9 79.9 146.8 69.6 7-1 14.1-2.5 21.3-4.4q2.7-0.8 5.4-1.6 2.7-0.8 5.4-1.6 2.6-0.9 5.3-1.8 2.6-1 5.2-2c66.7-25.5 121.5-83.2 143.6-147.4 4.9-14.2 8.3-28.8 9.7-43.5q0.3-2.4 0.5-4.9 0.1-2.4 0.2-4.9 0.2-2.4 0.2-4.9 0-2.4 0-4.9c-1.2-86.8-70.6-140.2-159-126.6z"/>
			<g>
				<path class="s3" d="m1425 1061.4l128.4-34.4-2.2-155.1c-72.8 27.8-128.4 102.1-127.4 173.8q0.2 8.1 1.2 15.7zm161.4-197.8l2.2 154 50.4-13.5 78-20.9q0.8-8.1 0.7-16.2c-1-71.7-58.3-115.7-131.3-104.5zm2.7 187.6l0.5 36 0.8 53.6c55-21 100.3-68.6 118.6-121.7l-74.7 20zm-34.4 69l-0.8-59.5-119.9 32.1c19.7 42.8 65.9 66 121.1 57.5z"/>
			</g>
			<path class="s0" d="m1715.2 762.7l-480 583.6-179.4 94 252.7-470.8 244-361.7 96 91.3z"/>
			<path class="s1" d="m1034.5 114l59.9 77.4 479.8 470 42.4 22.8 65.5 61.8 490.3 375.5 65.6 38.6-582.1-570.3z"/>
			<path class="s2" d="m1034.5 114l582.1 570.2-7.1 20.5-584.2 730.8-27.2 22.5-582.1-570.2z"/>
			<path class="s7" d="m2238 1160.1l-621.4-475.9-618.5 773.8 57.7-17.7 571.1-714.6 580.1 444.2z"/>
		</g>
	</g>
</svg>