<svg enable-background="new 0 0 1959.448 1672.303" height="1673" viewBox="0 0 1959.448 1672.303" width="1960" xmlns="http://www.w3.org/2000/svg"><path d="m63.324 501.665c25.896-130.034 63.743-265.479 161-359.048 72.834-70.073 172.67-109.384 273.918-127.299s205-16.057 307.923-14.137c180.86 3.374 361.719 6.748 542.579 10.122 115.922 2.163 238.557 6.197 336.143 66.504 129.787 80.207 180.299 237.153 210.536 382.801 59.866 288.378 77.913 584.782 53.453 877.923-5.317 63.728-13.951 130.697-53.519 182.028-66.702 86.532-194.038 98.525-305.832 102.998-388.676 15.552-777.352 31.105-1166.028 46.657-90.667 3.628-184.992 6.635-268.144-28.372-187.965-79.134-151.814-312.008-153.741-472.84-2.681-223.685 17.959-447.638 61.712-667.337z" fill="#10294c"/><path d="m761.119 855.483c-149.265 12.973-298.53 12.973-447.795 0-4.538-.398-9.032-4.42-9.972-8.959-19.344-94.114-19.344-188.228 0-282.342.94-4.542 5.433-8.56 9.972-8.959 149.265-12.973 298.53-12.973 447.795 0 4.538.4 9.032 4.417 9.972 8.959 19.344 94.114 19.344 188.228 0 282.342-.94 4.54-5.434 8.559-9.972 8.959z" fill="#ffb400"/><path d="m762.765 1392.762c-150.363 6.436-300.725 6.436-451.088 0-3.626-.158-7.904-3.236-9.382-6.87-17.935-44.303-17.935-88.606 0-132.908 1.478-3.633 5.757-6.713 9.382-6.87 150.363-6.436 300.725-6.436 451.088 0 3.626.158 7.904 3.237 9.382 6.87 17.935 44.303 17.935 88.605 0 132.908-1.478 3.634-5.757 6.711-9.382 6.87z" fill="#ffb400"/><path d="m684.272 1242.53c-96.388 4.061-192.776 4.061-289.164 0-3.62-.157-7.908-3.237-9.311-6.868-10.473-27.32-10.473-54.64 0-81.959 1.403-3.633 5.692-6.71 9.311-6.868 96.388-4.061 192.776-4.061 289.164 0 3.62.157 7.908 3.235 9.312 6.868 10.473 27.32 10.473 54.64 0 81.959-1.403 3.632-5.692 6.71-9.312 6.868z" fill="#ffb400"/><path d="m539.69 1228.292c-45.194 0-91.068-.916-136.348-2.723-1.741-.069-3.25-1.228-3.766-2.892-5.843-18.825-5.842-37.139.002-55.988.516-1.665 2.025-2.824 3.767-2.893 45.268-1.807 91.142-2.722 136.346-2.722 45.19 0 91.065.916 136.348 2.723 1.741.07 3.25 1.228 3.766 2.892 5.843 18.826 5.843 37.14-.002 55.988-.516 1.665-2.025 2.824-3.767 2.893-45.274 1.806-91.148 2.722-136.346 2.722zm-133.07-10.831c44.212 1.725 88.967 2.6 133.07 2.6 44.107 0 88.861-.875 133.067-2.6 4.248-15.307 4.249-30.267.003-45.558-44.215-1.725-88.971-2.6-133.07-2.6-44.113 0-88.866.875-133.067 2.599-4.247 15.309-4.249 30.269-.003 45.559z" fill="#10294c"/><path d="m1109.311 856.569c-93.291 19.979-186.582 19.979-279.873 0-4.541-.979-8.547-5.507-8.93-10.045-12.897-154.502-12.897-309.003 0-463.504.383-4.54 4.389-9.066 8.93-10.045 93.291-19.979 186.582-19.979 279.873 0 4.541.98 8.547 5.507 8.93 10.045 12.897 154.501 12.897 309.003 0 463.504-.383 4.536-4.388 9.065-8.93 10.045z" fill="#ffb400"/><path d="m1378.482 849.817c-68.048 8.949-136.095 8.949-204.143 0-3.63-.484-6.995-3.848-7.479-7.479-8.949-68.048-8.949-136.095 0-204.143.483-3.631 3.848-6.995 7.479-7.479 68.047-8.949 136.095-8.949 204.143 0 3.63.484 6.995 3.848 7.478 7.479 8.949 68.048 8.949 136.095 0 204.143-.483 3.631-3.848 6.994-7.478 7.479z" fill="#ffb400"/><path d="m1640.244 849.817c-68.047 8.949-136.095 8.949-204.143 0-3.63-.484-6.995-3.848-7.479-7.479-8.949-68.048-8.949-136.095 0-204.143.484-3.631 3.848-6.995 7.479-7.479 68.047-8.949 136.095-8.949 204.143 0 3.631.484 6.995 3.848 7.478 7.479 8.949 68.048 8.949 136.095 0 204.143-.484 3.631-3.848 6.994-7.478 7.479z" fill="#ffb400"/><path d="m1031.935 1399.753c-68.048 8.949-136.095 8.949-204.143 0-3.63-.483-6.995-3.848-7.478-7.478-8.949-68.047-8.949-136.095 0-204.143.483-3.63 3.848-6.995 7.478-7.479 68.047-8.949 136.095-8.949 204.143 0 3.63.483 6.995 3.849 7.479 7.479 8.949 68.048 8.949 136.095 0 204.143-.484 3.63-3.849 6.995-7.479 7.478z" fill="#ffb400"/><path d="m1293.697 1399.753c-68.048 8.949-136.095 8.949-204.143 0-3.63-.483-6.995-3.848-7.479-7.478-8.949-68.047-8.949-136.095 0-204.143.484-3.63 3.848-6.995 7.479-7.479 68.047-8.949 136.095-8.949 204.143 0 3.63.483 6.995 3.849 7.478 7.479 8.949 68.048 8.949 136.095 0 204.143-.483 3.63-3.848 6.995-7.478 7.478z" fill="#ffb400"/><path d="m1251.092 1357.699c-20.696 0-41.397-1.225-61.954-3.673-4.051-.489-7.522-3.742-8.08-7.567-5.423-37.331-5.423-75.183 0-112.505.556-3.83 4.026-7.088 8.073-7.576 38.772-4.62 78.075-4.885 116.822-.789 2.26.239 3.899 2.265 3.66 4.525s-2.267 3.899-4.525 3.66c-38.136-4.031-76.819-3.769-114.977.776-.369.045-.84.446-.926.665-5.288 36.44-5.292 73.473.008 109.998.109.222.561.598.924.641 38.152 4.545 76.835 4.806 114.971.775 2.261-.242 4.286 1.4 4.525 3.66s-1.4 4.286-3.66 4.525c-18.2 1.924-36.529 2.885-54.861 2.885z" fill="#10294c"/><path d="m1638.597 1399.98c-94.389 12.489-188.777 12.489-283.166 0-4.538-.607-8.744-4.813-9.351-9.351-12.488-94.389-12.488-188.777 0-283.166.607-4.538 4.813-8.745 9.351-9.351 94.389-12.488 188.777-12.488 283.166 0 4.539.607 8.744 4.813 9.351 9.351 12.489 94.389 12.489 188.777 0 283.166-.607 4.538-4.812 8.743-9.351 9.351z" fill="#ffb400"/><ellipse cx="988.308" cy="861.879" fill="#ffb400" rx="792.694" ry="21.206"/><ellipse cx="988.308" cy="271.284" fill="#ffb400" rx="580.482" ry="17.655"/><ellipse cx="988.308" cy="1398.574" fill="#ffb400" rx="792.694" ry="21.206"/><path d="m969.375 847.684c-40.657 0-81.967-4.027-122.781-11.971-1.815-.353-3.171-1.873-3.316-3.716-11.365-144.132-11.365-290.303 0-434.453.145-1.843 1.501-3.363 3.316-3.716 40.805-7.943 82.114-11.97 122.781-11.97 40.657 0 81.967 4.027 122.781 11.971 1.815.353 3.171 1.873 3.316 3.716 11.365 144.132 11.365 290.303 0 434.453-.145 1.843-1.501 3.363-3.316 3.716-40.804 7.943-82.113 11.97-122.781 11.97zm-118.137-19.459c39.297 7.452 79.025 11.229 118.137 11.229 39.122 0 78.849-3.777 118.137-11.228 11.004-141.661 11.004-285.263 0-426.907-39.297-7.452-79.025-11.229-118.137-11.229-39.121 0-78.849 3.777-118.137 11.228-11.004 141.661-11.004 285.263 0 426.907z" fill="#10294c"/><path d="m1497.015 1385.477c-41.511 0-83.677-2.526-125.327-7.507-1.886-.226-3.372-1.712-3.598-3.598-9.943-83.153-9.943-167.485.001-250.654.226-1.886 1.712-3.372 3.598-3.598 41.641-4.981 83.807-7.506 125.327-7.506 41.51 0 83.676 2.525 125.327 7.506 1.886.226 3.372 1.712 3.598 3.598 9.943 83.151 9.943 167.483-.001 250.654-.226 1.885-1.712 3.372-3.598 3.598-41.643 4.982-83.808 7.507-125.327 7.507zm-121.133-15.3c40.28 4.692 81.015 7.069 121.133 7.069 40.125 0 80.859-2.378 121.132-7.068 9.359-80.406 9.36-161.878.001-242.264-40.281-4.691-81.016-7.069-121.132-7.069-40.126 0-80.86 2.378-121.132 7.068-9.361 80.404-9.361 161.876-.002 242.264z" fill="#10294c"/><path d="m537.221 841.343c-69.334 0-139.716-2.884-209.192-8.573-1.849-.152-3.369-1.522-3.709-3.346-15.371-82.318-15.371-165.805.001-248.143.34-1.825 1.86-3.195 3.709-3.347 69.47-5.689 139.852-8.573 209.191-8.573 69.334 0 139.716 2.884 209.191 8.573 1.849.151 3.369 1.522 3.709 3.346 15.372 82.317 15.371 165.804-.001 248.143-.34 1.825-1.86 3.195-3.709 3.346-69.467 5.69-139.849 8.574-209.19 8.574zm-205.38-16.521c68.231 5.501 137.316 8.291 205.38 8.291 68.072 0 137.155-2.789 205.379-8.291 14.424-79.298 14.424-159.66.001-238.939-68.232-5.501-137.316-8.291-205.38-8.291-68.07 0-137.153 2.789-205.379 8.291-14.424 79.297-14.424 159.66-.001 238.939z" fill="#10294c"/><path d="m1594.758 652.257c11.161.661 21.303 9.025 24.609 19.705 6.61 21.356-19.093 51.895-39.585 33.582-18.105-16.179-14.338-55.022 14.976-53.287z" fill="#10294c"/><path d="m842.517 1372.895c16.188-2.492 32.377-4.985 48.565-7.477-3.027-17.146-6.053-34.292-9.08-51.439-7.178 0-16.711 4.805-23.648 6.799-3.721 1.07-22.896 4.096-24.222 7.306-.678 1.641 3.294 8.278 3.953 10.199 1.251 3.644 2.255 7.373 3.009 11.151 1.538 7.707 2.033 15.624 1.423 23.461z" fill="#10294c"/><path d="m929.451 1306.406c4.48-5.705 3.749-14.672-1.258-19.922s-13.53-6.514-20.081-3.398c-4.372 2.079-7.987 6.2-8.45 11.019-1.395 14.548 20.774 23.781 29.789 12.301z" fill="#10294c"/><g fill="#04294f"><ellipse cx="888.077" cy="446.618" rx="5.655" ry="66.689"/><ellipse cx="889.723" cy="688.834" rx="5.655" ry="108.076"/><ellipse cx="940.753" cy="545.526" rx="5.655" ry="33.906"/><ellipse cx="1024.936" cy="606.784" rx="5.655" ry="149.486"/><ellipse cx="1055.983" cy="428.49" rx="5.655" ry="46.915"/><ellipse cx="967.091" cy="788.219" rx="5.655" ry="28.033"/><ellipse cx="1065.86" cy="697.682" rx="5.655" ry="28.033"/><ellipse cx="642.758" cy="1283.658" rx="120.213" ry="7.069"/><ellipse cx="571.226" cy="1336.334" rx="181.928" ry="7.069"/></g><path d="m1293.697 1399.753c-68.048 8.949-136.095 8.949-204.143 0-3.63-.483-6.995-3.848-7.479-7.478-8.949-68.047-8.949-136.095 0-204.143.484-3.63 3.848-6.995 7.479-7.479 68.047-8.949 136.095-8.949 204.143 0 3.63.483 6.995 3.849 7.478 7.479 8.949 68.048 8.949 136.095 0 204.143-.483 3.63-3.848 6.995-7.478 7.478z" fill="#ffb400"/></svg>